<?xml version="1.0" ?><svg data-name="Layer 1" id="Layer_1" viewBox="0 0 256 256" xmlns="http://www.w3.org/2000/svg"><defs><style>.cls-1{fill:#84d0f7;}.cls-2{fill:#aa392d;}.cls-3{fill:#7c211a;}.cls-4{fill:#e59973;}.cls-5{fill:#2d2d2d;}.cls-6{opacity:0.2;}.cls-7{opacity:0.3;}</style></defs><g data-name="Male 2" id="Male_2"><path class="cls-1" d="M250.17,127.74A121.27,121.27,0,0,1,221.67,206a125.49,125.49,0,0,1-9.28,9.87H45A102.67,102.67,0,0,1,36,207c-.25-.28-.52-.6-.83-1-7-8.33-29.65-37.86-28.48-78.26C8.32,71.77,55.38,6,128.44,6A121.73,121.73,0,0,1,250.17,127.74Z" id="Wallpaper"/><path class="cls-2" d="M221.67,206a123.51,123.51,0,0,1-9.28,9.86,121.38,121.38,0,0,1-84,33.58c-39.58,0-69.22-21-83.4-33.58A107.52,107.52,0,0,1,36,207c-.24-.29-.53-.6-.81-1,13.57-13.69,31.85-24.32,52.89-30.34,5.9,14.66,21.74,25.16,40.32,25.16,17.28,0,32.17-9.06,38.9-22.09.53-1,1-2,1.42-3.07.4.11.64.17,1.15.33C190.46,182.07,208.34,192.57,221.67,206Z" id="Sweater"/><path class="cls-3" d="M168.73,175.65c-.42,1-.89,2.06-1.42,3.07-6.73,13-21.62,22.09-38.9,22.09-18.58,0-34.42-10.5-40.32-25.16l2.66-.74.22-.06s1.78-.47,3.42-.84a37.82,37.82,0,0,0,68.05,0A28,28,0,0,1,168.73,175.65Z" id="Neckband"/><path class="cls-4" d="M162.44,174a37.82,37.82,0,0,1-68,0c1.35-.34,2.7-.62,4.07-.91l1-.2a3.61,3.61,0,0,1,.51-.11c.29-.07.58-.11.86-.18l1.2-.2.91-.18h.09c.35-.86.68-1.79,1-2.81.11-.33.23-.71.34-1.06.39-1.46.68-2.84.88-4.06a40,40,0,0,0,6.89,4.59,5.45,5.45,0,0,1,.53.29c.2.09.42.2.62.31l.76.35c.15.07.31.13.44.2l.38.18.46.2.44.18a1,1,0,0,0,.2.08,4.75,4.75,0,0,0,.54.2c.19.09.42.18.66.27h0c.25.09.47.18.73.26a1.42,1.42,0,0,0,.16.05l.51.18c.27.06.51.15.77.22s.23.06.36.09l.71.2a36,36,0,0,0,4.52.79c.15,0,.31,0,.46.05l.33,0,.62,0,.56,0,.64,0h.55a30.43,30.43,0,0,0,9.71-1.62.07.07,0,0,0,.06,0,1.7,1.7,0,0,0,.36-.11c.8-.27,1.5-.56,2.12-.8l.85-.35.22-.09a38.53,38.53,0,0,0,9.86-6.12c.31,1.38.68,2.84,1.15,4.37.42,1.37.86,2.66,1.3,3.87.38.07.74.12,1.11.2l1.09.2,1.08.2.8.16c.18,0,.36.09.53.11C159.76,173.39,161.11,173.67,162.44,174Z" id="Neck"/><path class="cls-5" d="M80,94.21a67.63,67.63,0,0,0-1,15.25c0,1,.11,2.06.23,3.07,0,.38.06.78.11,1.16-2.11-1.11-3-6-4.63-15.27-1-5.84-1.55-8.77-1.4-12a36.7,36.7,0,0,1,4.08-14.18,17.65,17.65,0,0,0,6.22,9.3A68.92,68.92,0,0,0,80,94.21Z" id="Hairs"/><path class="cls-5" d="M182.06,98.42c-.79,4.52-1.41,8-2.08,10.48-.71,2.7-1.48,4.28-2.61,4.81.17-1.6.31-3.17.37-4.76a66.62,66.62,0,0,0-.93-14.74,65.74,65.74,0,0,0-2.57-9.83s0-.07,0-.09A82.89,82.89,0,0,0,182,78.44a36.33,36.33,0,0,1,1.51,8v0C183.64,89.67,183.1,92.6,182.06,98.42Z" data-name="Hairs" id="Hairs-2"/><path class="cls-6" d="M169.88,176c-.82,1-1.68,1.86-2.57,2.74a53.88,53.88,0,0,1-6.27,5.45,43.5,43.5,0,0,1-9.48,5.39,35.82,35.82,0,0,1-6.6,1.95,31.44,31.44,0,0,1-6.05.53,32.43,32.43,0,0,1-11.58-2.42,5.53,5.53,0,0,1-.65-.28,42.06,42.06,0,0,1-8.3-4.72,59.53,59.53,0,0,1-12.65-12.83c-.58-.77-1.13-1.55-1.69-2.37.11-.33.23-.71.34-1.06.39-1.46.68-2.84.88-4.06q.87.7,1.8,1.38a47,47,0,0,0,5.09,3.21,5.45,5.45,0,0,1,.53.29c.2.09.42.2.62.31l.76.35c.15.07.31.13.44.2l.38.18.46.2.44.18a1,1,0,0,0,.2.08l.54.2.66.27h0l.73.26a1.42,1.42,0,0,0,.16.05l.51.18c.27.06.51.15.77.22s.23.06.36.09l.71.2a31.19,31.19,0,0,0,4.52.79c.15,0,.31,0,.46.05l.33,0,.62,0,.56,0,.64,0h.55a31.73,31.73,0,0,0,9.71-1.62.07.07,0,0,0,.06,0,1.7,1.7,0,0,0,.36-.11c.66-.22,1.31-.47,1.95-.73l.2-.07.82-.35.22-.09a46.11,46.11,0,0,0,8.24-4.88c.55-.39,1.08-.82,1.62-1.24.31,1.38.68,2.84,1.15,4.37.42,1.37.86,2.66,1.3,3.87.38.07.74.12,1.11.2l1.09.2,1.08.2.8.16c.18,0,.36.09.53.11,1.38.29,2.73.57,4.06.91,2.12.48,4.23,1,6.29,1.64Z" id="NeckShadow"/><path class="cls-4" d="M186.42,119.8c-.16,5.18-3.47,10.43-7.18,12.36a7,7,0,0,1-1.57.6.53.53,0,0,1-.12,0,4.85,4.85,0,0,1-2,.06,5,5,0,0,1-2-.88l-.28-.2a7.82,7.82,0,0,1-1.12-1.11c-2.67-3.22-3.76-9.26-2-14.08a14.64,14.64,0,0,1,3.23-5,9,9,0,0,1,4.42-2.59,5.86,5.86,0,0,1,2.36,0C184.52,109.81,186.55,115.46,186.42,119.8Z" id="RightEar"/><path class="cls-7" d="M186.41,119.8c-.15,5.18-3.46,10.43-7.17,12.36a7,7,0,0,1-1.57.6.53.53,0,0,1-.12,0,4.85,4.85,0,0,1-2,.06,5,5,0,0,1-2-.88l-.28-.2a7.82,7.82,0,0,1-1.12-1.11c-2.67-3.22-3.76-9.26-2-14.08a14.64,14.64,0,0,1,3.23-5,9,9,0,0,1,4.42-2.59,5.86,5.86,0,0,1,2.36,0C184.52,109.81,186.55,115.46,186.41,119.8Z" id="RightEarShadow"/><path class="cls-4" d="M84.71,130.66a7.53,7.53,0,0,1-1.4,1.32,5.11,5.11,0,0,1-2,.87,4.85,4.85,0,0,1-2-.06l-.12,0a6.85,6.85,0,0,1-1.57-.6c-3.71-1.93-7-7.18-7.18-12.36-.13-4.34,1.9-10,6.3-10.87,2.51-.5,4.9.71,6.79,2.6a14.64,14.64,0,0,1,3.23,5C88.47,121.4,87.38,127.44,84.71,130.66Z" id="LeftEar"/><path class="cls-4" d="M177.74,109c-.06,1.59-.2,3.16-.37,4.76a80,80,0,0,1-4.17,18c-4.65,13.07-12.47,24.66-21.88,32.23-.54.42-1.07.85-1.62,1.24a46.11,46.11,0,0,1-8.24,4.88l-.22.09-.82.35-.2.07c-.64.26-1.29.51-1.95.73a1.7,1.7,0,0,1-.36.11.07.07,0,0,1-.06,0,31.73,31.73,0,0,1-9.71,1.62h-.55l-.64,0-.56,0-.62,0-.33,0c-.15,0-.31,0-.46-.05a31.19,31.19,0,0,1-4.52-.79l-.71-.2c-.13,0-.24-.07-.36-.09s-.5-.16-.77-.22l-.51-.18a1.42,1.42,0,0,1-.16-.05l-.73-.26h0l-.66-.27-.54-.2a1,1,0,0,1-.2-.08l-.44-.18-.46-.2-.38-.18c-.13-.07-.29-.13-.44-.2l-.76-.35c-.2-.11-.42-.22-.62-.31a5.45,5.45,0,0,0-.53-.29,47,47,0,0,1-5.09-3.21q-.93-.68-1.8-1.38a57.31,57.31,0,0,1-8.57-8.5,78.36,78.36,0,0,1-13.62-25,80.16,80.16,0,0,1-3.7-17.1c-.05-.38-.09-.78-.11-1.16-.12-1-.18-2-.23-3.07a67.63,67.63,0,0,1,1-15.25,68.92,68.92,0,0,1,3.63-12.67c.67-1.75,1.42-3.5,2.24-5.22a65.31,65.31,0,0,1,17-22.42c.31-.27.62-.51.93-.75a39.77,39.77,0,0,1,24.42-8.87c9.74,0,18.38,3.7,25.6,9.6a58.37,58.37,0,0,1,10.22,10.87,74.08,74.08,0,0,1,8.61,15.46c.53,1.38,1.07,2.71,1.53,4.08,0,0,0,.07,0,.09a65.74,65.74,0,0,1,2.57,9.83A66.62,66.62,0,0,1,177.74,109Z" id="Head"/><path class="cls-6" d="M183.46,86.42v0a25.11,25.11,0,0,1-3.41,3c-.09.09-.56.4-1.15.82-1,.64-2,1.29-3,1.91a75.2,75.2,0,0,1-13.38,6.4,76.62,76.62,0,0,1-61.9-4.45c-2.23-1.22-4.4-2.55-6.49-4-.71-.49-1.39-1-2.08-1.48a63.9,63.9,0,0,1-5.27-4.28c-.8-.71-1.6-1.44-2.35-2.19a40.74,40.74,0,0,0,8.75,5c6.45,2.84,14.13,5,21.6,7a73.38,73.38,0,0,0,19.87,3,65.73,65.73,0,0,0,20-3,55.76,55.76,0,0,0,8.55-3.57c1.31-.64,2.62-1.35,4-2.08,2.61-1.42,4.89-2.79,7-4.23a82.7,82.7,0,0,0,7.64-5.78A32.67,32.67,0,0,1,183.46,86.42Z" id="HairsShadow"/><path class="cls-5" d="M199.14,56.84c-.06,5.59-5.31,10.68-6.84,12.12-3.92,3.72-7.16,6.78-10.35,9.48l-.09.07a82.7,82.7,0,0,1-7.64,5.78c-2.13,1.44-4.41,2.81-7,4.23-1.35.73-2.66,1.44-4,2.08a55.76,55.76,0,0,1-8.55,3.57,65.73,65.73,0,0,1-20,3,73.38,73.38,0,0,1-19.87-3c-7.47-2.09-15.15-4.21-21.6-7a40.74,40.74,0,0,1-8.75-5l0,0c-.27-.23-.53-.42-.8-.65a17.65,17.65,0,0,1-6.22-9.3v0C75.05,62.78,81.94,53.41,83,52a30.27,30.27,0,0,1,12.45-9.4c9.32-3.94,13.64-.86,33.91,0,18,.78,27,1.18,35.53-2.15,3.44-1.35,9.86-4.32,11-2.72.91,1.28-1.73,5.09-2.35,6-2.32,3.34-4.27,4.25-4,5,.51,1.28,6.14.66,10.83-.71,5-1.46,6.87-3.19,7.75-2.35,1.2,1.13-.59,6-3.61,9.2-2.17,2.32-4.18,3-4,3.78.29,1.07,4.16,1.44,7.75.53,5.67-1.41,8.55-5.56,10.15-4.51C198.85,54.94,199.16,55.52,199.14,56.84Z" data-name="Hairs" id="Hairs-3"/></g></svg>