<?xml version="1.0" ?><svg data-name="Layer 1" id="Layer_1" viewBox="0 0 256 256" xmlns="http://www.w3.org/2000/svg"><defs><style>.cls-1{fill:#84d0f7;}.cls-2{fill:#aa392d;}.cls-3{fill:#7c211a;}.cls-4{fill:#e59973;}.cls-5{fill:#2d2d2d;}.cls-6{opacity:0.2;}.cls-7{opacity:0.3;}</style></defs><g data-name="Male 1" id="Male_1"><path class="cls-1" d="M250,127.52a121,121,0,0,1-28.46,78.15,125,125,0,0,1-9.26,9.85H45.18a101.45,101.45,0,0,1-9-8.91l-.82-1c-7-8.31-29.6-37.79-28.43-78.12C8.54,71.65,55.51,6,128.44,6A121.52,121.52,0,0,1,250,127.52Z" id="Wallpaper"/><path class="cls-2" d="M221.5,205.68a122.89,122.89,0,0,1-9.26,9.84A121.16,121.16,0,0,1,128.43,249c-39.52,0-69.1-21-83.25-33.52a102.17,102.17,0,0,1-9-8.91l-.82-1c13.55-13.67,31.8-24.28,52.82-30.3C94,190,109.86,200.46,128.41,200.46c17.24,0,32.1-9,38.85-22,.51-1,1-2,1.39-3.08l1.15.33C190.34,181.76,208.19,192.24,221.5,205.68Z" id="Sweater"/><path class="cls-3" d="M168.65,175.34c-.42,1-.88,2.06-1.39,3.08-6.75,13-21.61,22-38.85,22-18.55,0-34.37-10.48-40.23-25.12l1.33-.37.62-.18c.22,0,.47-.11.71-.18l.22-.06s1.75-.47,3.38-.84a37.76,37.76,0,0,0,67.95,0A27.41,27.41,0,0,1,168.65,175.34Z" id="Neckband"/><path class="cls-4" d="M162.39,173.71a37.77,37.77,0,0,1-67.95,0c1.35-.33,2.7-.64,4.07-.91.33-.07.69-.13,1-.22.18,0,.35-.07.51-.09s.57-.11.86-.18l1.19-.2.91-.17h.09c.35-.86.68-1.79,1-2.81.11-.33.22-.71.34-1.06.39-1.46.68-2.83.88-4a41.79,41.79,0,0,0,6.88,4.58c.17.09.35.18.53.29s.42.2.64.31.49.22.73.35.31.13.44.2l.38.18.46.19.44.18c.07,0,.14.07.2.09l.53.2c.2.09.45.18.67.26h.06c.22.09.44.18.71.27l.16,0c.17.07.35.11.5.18s.51.16.78.22c.11,0,.22.07.35.09l.71.2a37.61,37.61,0,0,0,4.51.8l.46,0,.34,0c.19,0,.42,0,.62,0l.55,0c.22,0,.42,0,.64,0h.55a30.32,30.32,0,0,0,9.69-1.61.06.06,0,0,0,.06,0,1.27,1.27,0,0,0,.36-.11c.79-.26,1.5-.55,2.12-.79l.84-.36.22-.09a38.2,38.2,0,0,0,9.84-6.1c.31,1.37.69,2.83,1.15,4.36.42,1.37.86,2.65,1.33,3.87.35.06.73.11,1.08.2s.73.13,1.08.2l1.09.19.79.16.56.11C159.7,173.09,161,173.38,162.39,173.71Z" id="Neck"/><path class="cls-5" d="M103,53.81A65,65,0,0,0,86,76.19a72.1,72.1,0,0,0-5.86,17.87,67,67,0,0,0-1,14.7,5.75,5.75,0,0,0-2.19,0c-.67-2.48-1.26-6-2.08-10.46-1-5.84-1.55-8.76-1.39-12A36.69,36.69,0,0,1,80,68C86.35,59.25,96.88,54.63,103,53.81Z" id="Hairs"/><path class="cls-5" d="M182,98.26c-.79,4.51-1.41,8-2.08,10.46-.7,2.7-1.48,4.27-2.58,4.8h0c.17-1.6.31-3.17.37-4.76a66.26,66.26,0,0,0-.93-14.7,65.25,65.25,0,0,0-2.56-9.82c.15-.11.26-.2.4-.29l.44-.33a1.15,1.15,0,0,0,.24-.2,24.22,24.22,0,0,0,4.62-4.75,4.5,4.5,0,0,0,.84-3.54,35.91,35.91,0,0,1,2.66,11.14v0C183.53,89.53,183,92.44,182,98.26Z" data-name="Hairs" id="Hairs-2"/><path class="cls-6" d="M169.8,175.67c-.82,1-1.68,1.86-2.54,2.75a59.92,59.92,0,0,1-6.28,5.44,43.29,43.29,0,0,1-9.47,5.37,35.43,35.43,0,0,1-6.56,2,29.39,29.39,0,0,1-6,.5,31.93,31.93,0,0,1-11.59-2.38,6.22,6.22,0,0,1-.64-.29,41.24,41.24,0,0,1-8.27-4.71,59.14,59.14,0,0,1-12.65-12.8c-.57-.78-1.12-1.57-1.68-2.37.11-.33.22-.71.34-1.06.39-1.46.68-2.83.88-4,.57.47,1.19.93,1.79,1.37a45.47,45.47,0,0,0,5.09,3.21c.17.09.35.18.53.29s.42.2.64.31.49.22.73.35.31.13.44.2l.38.18.46.19.44.18c.07,0,.14.07.2.09l.53.2.67.26h.06l.71.27.16,0c.17.07.35.11.5.18s.51.16.78.22c.11,0,.22.07.35.09l.71.2a31.08,31.08,0,0,0,4.51.8l.46,0,.34,0c.19,0,.42,0,.62,0l.55,0c.22,0,.42,0,.64,0h.55a31.64,31.64,0,0,0,9.69-1.61.06.06,0,0,0,.06,0,1.27,1.27,0,0,0,.36-.11c.66-.22,1.3-.46,1.94-.73l.2-.06.82-.36.22-.09a45,45,0,0,0,8.23-4.86c.55-.4,1.08-.82,1.61-1.24.31,1.37.69,2.83,1.15,4.36.42,1.37.86,2.65,1.33,3.87.35.06.73.11,1.08.2s.73.13,1.08.2l1.09.19.79.16.56.11c1.35.29,2.69.58,4,.91,2.1.48,4.21,1,6.26,1.63Z" id="NeckShadow"/><path class="cls-4" d="M186.31,119.59c-.16,5.18-3.46,10.42-7.16,12.35a7.55,7.55,0,0,1-1.57.6l-.11,0a5.08,5.08,0,0,1-2.05.07,5.15,5.15,0,0,1-2-.88l-.28-.21a7.26,7.26,0,0,1-1.12-1.1c-2.66-3.22-3.75-9.25-2-14.06a14.58,14.58,0,0,1,3.22-5,8.91,8.91,0,0,1,4.41-2.58,5.69,5.69,0,0,1,2.36,0C184.42,109.63,186.45,115.27,186.31,119.59Z" id="RightEar"/><path class="cls-7" d="M186.31,119.59c-.16,5.18-3.46,10.42-7.16,12.35a7.55,7.55,0,0,1-1.57.6l-.11,0a5.08,5.08,0,0,1-2.05.07,5.15,5.15,0,0,1-2-.88l-.28-.21a7.26,7.26,0,0,1-1.12-1.1c-2.66-3.22-3.75-9.25-2-14.06a14.58,14.58,0,0,1,3.22-5,8.91,8.91,0,0,1,4.41-2.58,5.69,5.69,0,0,1,2.36,0C184.42,109.63,186.45,115.27,186.31,119.59Z" id="RightEarShadow"/><path class="cls-4" d="M84.78,130.43a7.13,7.13,0,0,1-1.24,1.22s-.11.07-.15.11a5,5,0,0,1-2,.86,5,5,0,0,1-2-.06.19.19,0,0,1-.13,0,7.57,7.57,0,0,1-1.55-.59c-3.72-1.93-7-7.17-7.17-12.34-.13-4.34,1.88-10,6.28-10.86a.44.44,0,0,1,.16,0,5.75,5.75,0,0,1,2.19,0,8.67,8.67,0,0,1,4.42,2.59,8.5,8.5,0,0,1,.71.8,14.59,14.59,0,0,1,2.52,4.22C88.54,121.19,87.46,127.23,84.78,130.43Z" id="LeftEar"/><path class="cls-4" d="M177.65,108.76c-.06,1.59-.2,3.16-.37,4.76a80.36,80.36,0,0,1-4.16,18c-4.65,13-12.45,24.61-21.85,32.17-.53.42-1.06.84-1.61,1.24a45,45,0,0,1-8.23,4.86l-.22.09-.82.36-.2.06c-.64.27-1.28.51-1.94.73a1.27,1.27,0,0,1-.36.11.06.06,0,0,1-.06,0,31.64,31.64,0,0,1-9.69,1.61h-.55c-.22,0-.42,0-.64,0l-.55,0c-.2,0-.43,0-.62,0l-.34,0-.46,0a31.08,31.08,0,0,1-4.51-.8l-.71-.2c-.13,0-.24-.07-.35-.09-.27-.06-.51-.15-.78-.22s-.33-.11-.5-.18l-.16,0-.71-.27h-.06l-.67-.26-.53-.2c-.06,0-.13-.07-.2-.09l-.44-.18-.46-.19-.38-.18c-.13-.07-.29-.13-.44-.2s-.51-.24-.73-.35-.44-.23-.64-.31-.36-.2-.53-.29a45.47,45.47,0,0,1-5.09-3.21c-.6-.44-1.22-.9-1.79-1.37a58.62,58.62,0,0,1-8.56-8.49,77,77,0,0,1-13.2-23.88c-.15-.35-.26-.73-.4-1.11a80.39,80.39,0,0,1-3.69-17c0-.37-.09-.77-.11-1.14-.09-1-.18-2-.22-3.08,0-.18,0-.33,0-.51a67,67,0,0,1,1-14.7A72.1,72.1,0,0,1,86,76.19a65,65,0,0,1,17-22.38l.93-.75a39.59,39.59,0,0,1,24.36-8.84c9.71,0,18.34,3.69,25.54,9.57A58.21,58.21,0,0,1,164,64.65a73.12,73.12,0,0,1,8.6,15.43c.57,1.37,1.08,2.77,1.55,4.16a65.25,65.25,0,0,1,2.56,9.82A66.26,66.26,0,0,1,177.65,108.76Z" id="Head"/><path class="cls-6" d="M183.36,86.27v0a23.78,23.78,0,0,1-3.19,3c-.09.09-.51.4-1.06.82-.91.64-1.83,1.28-2.79,1.9A67,67,0,0,1,139.6,102.9,67.14,67.14,0,0,1,106,94,68.89,68.89,0,0,1,100,90c-.66-.48-1.31-1-2-1.48a64.15,64.15,0,0,1-4.93-4.27c-.73-.71-1.46-1.44-2.17-2.19-.92-1-1.83-2-2.69-3a4.43,4.43,0,0,1-.82-1.44,64.26,64.26,0,0,0,5.68,5v0a69.91,69.91,0,0,0,8,5.42,67.18,67.18,0,0,0,73.08-3.85c.15-.11.26-.2.4-.29l.44-.33a1.15,1.15,0,0,0,.24-.2,24.22,24.22,0,0,0,4.62-4.75,4.5,4.5,0,0,0,.84-3.54A35.91,35.91,0,0,1,183.36,86.27Z" id="HairsShadow"/><path class="cls-5" d="M179.86,78.67a24.22,24.22,0,0,1-4.62,4.75,1.15,1.15,0,0,1-.24.2l-.44.33c-.14.09-.25.18-.4.29a67.4,67.4,0,0,1-73.08,3.85,69.91,69.91,0,0,1-8-5.42v0a64.26,64.26,0,0,1-5.68-5c-.49-.49-1-1-1.44-1.46-.93-1-1.81-1.94-2.67-3a4.59,4.59,0,0,1,0-5.89A67.46,67.46,0,0,1,95.7,55.91q1.89-1.35,3.92-2.58a66.91,66.91,0,0,1,35-9.84c3.17,0,11.9,0,19.86,3,8.54,3.19,14.71,9.25,19,15.17a62.24,62.24,0,0,1,6.95,12.54,3.53,3.53,0,0,1,.26.95A4.5,4.5,0,0,1,179.86,78.67Z" data-name="Hairs" id="Hairs-3"/></g></svg>