<?xml version="1.0" ?><svg data-name="Layer 1" id="Layer_1" viewBox="0 0 256 256" xmlns="http://www.w3.org/2000/svg"><defs><style>.cls-1{fill:#84d0f7;}.cls-2{fill:#aa392d;}.cls-3{fill:#7c211a;}.cls-4{fill:#e59973;}.cls-5{fill:#2d2d2d;}.cls-6{opacity:0.2;}.cls-7{opacity:0.3;}</style></defs><g data-name="Male 3" id="Male_3"><path class="cls-1" d="M250,128.15a121.08,121.08,0,0,1-28.47,78.18,123.13,123.13,0,0,1-9.26,9.85H45.15a101.45,101.45,0,0,1-9-8.91c-.24-.28-.52-.6-.82-1-7-8.31-29.62-37.8-28.45-78.15C8.49,72.26,55.48,6.59,128.44,6.59A121.55,121.55,0,0,1,250,128.15Z" id="Wallpaper"/><path class="cls-2" d="M221.54,206.34a130.68,130.68,0,0,1-9.27,9.84,121.2,121.2,0,0,1-83.83,33.54c-39.53,0-69.15-21-83.29-33.54a105.43,105.43,0,0,1-9-8.91c-.22-.29-.51-.6-.82-1C48.89,192.63,67.14,182,88.16,176c5.88,14.64,21.67,25.13,40.25,25.13,17.26,0,32.1-9.05,38.85-22.05.53-1,1-2,1.41-3.08l1.15.33C190.37,182.41,208.22,192.89,221.54,206.34Z" id="Sweater"/><path class="cls-3" d="M168.67,176c-.42,1-.88,2.06-1.41,3.08-6.75,13-21.59,22.05-38.85,22.05-18.58,0-34.37-10.49-40.25-25.13.44-.13.88-.24,1.32-.38.22,0,.42-.11.64-.17s.47-.11.69-.18l.22-.07s1.75-.46,3.41-.84a37.76,37.76,0,0,0,67.95,0A28.09,28.09,0,0,1,168.67,176Z" id="Neckband"/><path class="cls-4" d="M162.39,174.35a37.76,37.76,0,0,1-67.95,0c1.35-.33,2.7-.64,4.07-.9l1-.22c.17,0,.33-.07.5-.09l.87-.18,1.19-.2c.29-.07.6-.11.91-.18h.09c.33-.86.68-1.79,1-2.81.11-.33.22-.7.33-1.06a35,35,0,0,0,.87-4,41.53,41.53,0,0,0,6.9,4.57c.17.09.35.18.53.29s.42.2.62.31.48.22.75.36l.44.19c.11.07.25.11.38.18s.31.13.44.2.31.11.44.18h0l.19.09c.16.06.34.13.54.19s.42.18.66.27h0l.73.27.16,0c.15.07.33.11.51.18s.51.15.75.22.24.06.38.09l.68.2a36,36,0,0,0,4.54.79c.15,0,.31,0,.46.05l.33,0,.62,0,.55,0a4.29,4.29,0,0,1,.62,0h.56a30.48,30.48,0,0,0,9.71-1.62.07.07,0,0,0,.06,0,2.47,2.47,0,0,0,.36-.11c.79-.27,1.48-.55,2.12-.8l.84-.35c.07,0,.13-.07.22-.09a38.29,38.29,0,0,0,9.85-6.1c.31,1.37.68,2.83,1.15,4.35.42,1.37.86,2.66,1.3,3.87.38.07.73.11,1.11.2s.73.14,1.08.2l1.09.2.79.16c.18,0,.36.06.53.11C159.71,173.73,161.06,174,162.39,174.35Z" id="Neck"/><path class="cls-5" d="M197.43,82a7.84,7.84,0,0,1-.35,2.41c-1.6,5.62-7.08,6.19-8.1,11.1-.2.91.09.45,0,3.23-.07,2-.22,6.57-1.53,9.56a10.68,10.68,0,0,1-3.27,4,6.66,6.66,0,0,0-4.14-3,6,6,0,0,0-2.36,0,64.65,64.65,0,0,0-3.5-24.53c-.46-1.4-1-2.79-1.55-4.16A73.84,73.84,0,0,0,164,65.26c-8.61-11.75-20.91-20.49-35.77-20.44a39.66,39.66,0,0,0-24.38,8.85C96.27,59.59,90.17,67.93,85.94,76.8a72.17,72.17,0,0,0-5.86,17.88,67,67,0,0,0-1,14.71,5.63,5.63,0,0,0-2.35,0,7,7,0,0,0-4.6,3.7,10.16,10.16,0,0,1-3.32-3.7c-2.28-4.8,1.11-7.47-1.26-12.43-2.1-4.4-6.08-4.82-7.21-9.91a12.28,12.28,0,0,1-.18-3.78c.53-4.71,3.39-5,4.34-8.74,1.33-5.28-3.5-8.36-1.35-14.86a5.53,5.53,0,0,1,.55-1.37c2.75-4.78,10.27-1.24,14-5.11,3.47-3.56-.25-9.34,4.71-14.2a7.61,7.61,0,0,1,2.1-1.6c5.57-2.7,10.86,4.91,15.79,3,3.94-1.53,2.55-7.06,8.17-10.28a12,12,0,0,1,6.61-1.64c6.37.35,7.92,6.08,12.08,5.53,4-.55,3.78-5.93,9.18-7.66a11.21,11.21,0,0,1,9,1.07c5,3.07,3.52,8.6,7.48,10.08,3.18,1.22,4.93-2.14,11.08-1.79,2,.11,4.8.29,7.21,2,5.55,3.92,2.08,11.06,7.1,14.67,3.52,2.54,7.1.37,12.17,4.33a8.83,8.83,0,0,1,2.7,2.79c2.52,4.49-2.46,8-.82,13.14C193.58,76.63,197.43,77.49,197.43,82Z" id="Hairs"/><path class="cls-6" d="M169.82,176.32c-.84,1-1.68,1.86-2.56,2.75a57.77,57.77,0,0,1-6.26,5.44,44,44,0,0,1-9.47,5.37,36,36,0,0,1-6.59,2,29.81,29.81,0,0,1-6,.51A32,32,0,0,1,127.33,190c-.22-.09-.44-.18-.66-.29a41.37,41.37,0,0,1-8.28-4.71,59.34,59.34,0,0,1-12.63-12.81c-.57-.77-1.13-1.57-1.68-2.37.11-.33.22-.7.33-1.06a35,35,0,0,0,.87-4c.59.46,1.19.92,1.81,1.37a45,45,0,0,0,5.09,3.2c.17.09.35.18.53.29s.42.2.62.31.48.22.75.36l.44.19a4.11,4.11,0,0,0,.38.18c.15.07.31.13.44.2s.31.11.44.18h0l.19.09.54.19.66.27h0l.73.27.16,0c.15.07.33.11.51.18s.51.15.75.22.24.06.38.09l.68.2a32.19,32.19,0,0,0,4.54.79c.15,0,.31,0,.46.05l.33,0,.62,0,.55,0a4.29,4.29,0,0,1,.62,0h.56a32,32,0,0,0,9.71-1.62.07.07,0,0,0,.06,0,2.47,2.47,0,0,0,.36-.11c.66-.22,1.3-.47,1.94-.73a.61.61,0,0,0,.18-.07c.29-.11.55-.24.84-.35.07,0,.13-.07.22-.09a45,45,0,0,0,8.23-4.87c.55-.39,1.09-.81,1.62-1.23.31,1.37.68,2.83,1.15,4.35.42,1.37.86,2.66,1.3,3.87.38.07.73.11,1.11.2s.73.14,1.08.2l1.09.2.79.16c.18,0,.36.06.53.11,1.37.28,2.72.57,4,.9,2.12.49,4.23,1,6.28,1.64Z" id="NeckShadow"/><path class="cls-4" d="M186.33,120.22c-.15,5.18-3.46,10.42-7.16,12.35a7,7,0,0,1-1.57.6l-.12,0a5.2,5.2,0,0,1-2,.06,5,5,0,0,1-2-.88,1.86,1.86,0,0,1-.28-.21,6.84,6.84,0,0,1-1.12-1.1c-2.67-3.22-3.76-9.25-2-14.06a14.61,14.61,0,0,1,3.23-5,8.82,8.82,0,0,1,4.41-2.59,5.86,5.86,0,0,1,2.36,0C184.44,110.25,186.47,115.89,186.33,120.22Z" id="RightEar"/><path class="cls-7" d="M186.33,120.23c-.16,5.17-3.46,10.41-7.17,12.34a8.25,8.25,0,0,1-1.55.6.3.3,0,0,1-.13,0,4.55,4.55,0,0,1-2,.06,5,5,0,0,1-2-.86c-.09-.06-.18-.15-.29-.22a6.85,6.85,0,0,1-1.11-1.11c-2.5-3-3.6-8.47-2.28-13.09.09-.33.2-.64.31-1a14.79,14.79,0,0,1,3.23-5,8.91,8.91,0,0,1,4.41-2.58,6,6,0,0,1,2.36,0,6.66,6.66,0,0,1,4.14,3A13.89,13.89,0,0,1,186.33,120.23Z" id="RightEarShadow"/><path class="cls-4" d="M84.77,131.06a7.13,7.13,0,0,1-1.24,1.22c0,.05-.11.07-.15.11a5.15,5.15,0,0,1-2,.86,4.9,4.9,0,0,1-2-.06.3.3,0,0,1-.12,0,8.42,8.42,0,0,1-1.57-.6c-3.69-1.93-7-7.17-7.16-12.34a14.13,14.13,0,0,1,1.7-7.17,7,7,0,0,1,4.6-3.7,5.63,5.63,0,0,1,2.35,0A8.65,8.65,0,0,1,83.51,112a14.42,14.42,0,0,1,3.23,5,10.52,10.52,0,0,1,.44,1.48C88.29,123,87.16,128.19,84.77,131.06Z" id="LeftEar"/><path class="cls-4" d="M177.68,109.39q-.13,3.28-.6,6.57a78.17,78.17,0,0,1-4,16.21c-4.65,13.05-12.43,24.62-21.83,32.19-.53.42-1.07.84-1.62,1.23a45,45,0,0,1-8.23,4.87c-.09,0-.15.07-.22.09-.29.11-.55.24-.84.35a.61.61,0,0,1-.18.07c-.64.26-1.28.51-1.94.73a2.47,2.47,0,0,1-.36.11.07.07,0,0,1-.06,0,32,32,0,0,1-9.71,1.62h-.56a4.29,4.29,0,0,0-.62,0l-.55,0-.62,0-.33,0c-.15,0-.31,0-.46-.05a32.19,32.19,0,0,1-4.54-.79l-.68-.2c-.14,0-.25-.07-.38-.09s-.51-.16-.75-.22-.36-.11-.51-.18l-.16,0-.73-.27h0l-.66-.27L116,171l-.19-.09h0c-.13-.07-.28-.11-.44-.18s-.29-.13-.44-.2a4.11,4.11,0,0,1-.38-.18l-.44-.19c-.27-.14-.51-.25-.75-.36s-.42-.22-.62-.31-.36-.2-.53-.29a45,45,0,0,1-5.09-3.2c-.62-.45-1.22-.91-1.81-1.37a58.59,58.59,0,0,1-8.54-8.5,76.51,76.51,0,0,1-13.21-23.89c-.15-.35-.26-.73-.4-1.11a77.72,77.72,0,0,1-3.4-14.59c-.18-1.2-.31-2.39-.42-3.61-.09-1-.16-2-.2-3.07,0-.18,0-.34,0-.51a67,67,0,0,1,1-14.71A72.17,72.17,0,0,1,85.94,76.8c4.23-8.87,10.33-17.21,17.94-23.13a39.66,39.66,0,0,1,24.38-8.85c14.86,0,27.16,8.69,35.77,20.44a73.84,73.84,0,0,1,8.6,15.44c.56,1.37,1.09,2.76,1.55,4.16a64.65,64.65,0,0,1,3.5,24.53Z" id="Head"/><path class="cls-6" d="M177.52,100.54a30.07,30.07,0,0,1-7.67-1.44l-.4-.15c-7.92-2.73-7.7-7.59-14.2-9.27-7.35-1.88-10.09,3.69-18.14,1.59-6.13-1.59-6-5.18-10.91-5.55-7.36-.56-10.28,7.74-16.48,6.48-4-.82-4.4-4.65-9.29-5.73a13.77,13.77,0,0,0-9.18,1.7h0c2.36-2.28,3-5,6.37-5.84,4.64-1.17,6.17,3.59,12.14,3.52,7.74-.09,9.56-7,16.48-6.48,5,.38,4.78,4,10.91,5.55,8,2.1,10.79-3.49,18.14-1.59,6.5,1.68,6.28,6.55,14.2,9.27a28.56,28.56,0,0,0,7.21,1.55s.13,1.06.42,3.14C177.48,100.34,177.52,100.54,177.52,100.54Z" id="HairsShadow"/><path class="cls-5" d="M183,92.6A6.07,6.07,0,0,1,180,94l-.35.07a14.27,14.27,0,0,1-3,.11,28.56,28.56,0,0,1-7.21-1.55c-7.92-2.72-7.7-7.59-14.2-9.27-7.35-1.9-10.09,3.69-18.14,1.59-6.13-1.59-6-5.17-10.91-5.55-6.92-.53-8.74,6.39-16.48,6.48-6,.07-7.5-4.69-12.14-3.52-3.36.84-4,3.56-6.37,5.84a10.12,10.12,0,0,1-2.83,2,15,15,0,0,1-7.61,1.24c-2.81-.26-5.4-1.32-6.71-3.12C70.37,83.2,77.14,73,80,68.6c15.15-22.92,41.49-27.68,44.92-28.23.89-.15,2.06-.33,3.65-.51,8-.86,25.51-1.19,39.6,11C183.29,63.84,189.09,87.11,183,92.6Z" data-name="Hairs" id="Hairs-2"/></g></svg>